 <svg  version="1.0" xmlns="http://www.w3.org/2000/svg"  width="269.000000pt" height="69.000000pt" viewBox="0 0 269.000000 69.000000"  preserveAspectRatio="xMidYMid meet">  <g transform="translate(0.000000,69.000000) scale(0.050000,-0.050000)" fill="#af352c" stroke="none"> <path d="M1030 1360 c36 -15 36 -17 4 -19 -20 0 -32 -8 -27 -16 5 -8 -4 -27 -19 -41 -15 -14 -28 -20 -28 -12 0 7 -13 2 -29 -11 -16 -14 -40 -18 -54 -9 -16 10 -20 5 -12 -16 9 -23 0 -28 -37 -21 -29 6 -42 19 -34 32 8 13 -2 11 -20 -4 -22 -19 -34 -20 -34 -5 0 40 -70 -18 -132 -110 -32 -48 -62 -87 -68 -88 -18 0 -15 -120 3 -120 9 0 17 -27 17 -60 0 -33 -7 -60 -15 -60 -21 0 -17 -224 5 -340 10 -49 16 -97 13 -106 -2 -10 5 -12 15 -5 10 6 38 -13 61 -42 23 -30 58 -55 77 -56 19 -2 47 -10 62 -20 15 -9 32 -8 39 3 7 10 31 25 52 34 22 8 34 8 26 1 -16 -16 21 -56 70 -74 19 -8 35 -23 35 -34 0 -12 20 -21 44 -21 24 0 66 -20 93 -45 27 -25 43 -34 35 -20 -10 17 5 23 52 21 36 -1 102 14 146 34 44 20 96 35 115 34 19 -1 35 7 35 18 0 11 9 15 20 8 11 -7 20 -3 20 9 0 11 14 21 30 21 17 0 30 10 30 22 0 12 12 18 28 12 15 -6 37 -1 48 10 14 14 39 15 80 1 33 -12 70 -14 86 -4 16 10 33 8 42 -7 9 -13 16 -15 16 -3 0 22 120 22 200 -1 107 -30 260 -36 260 -10 0 20 6 20 29 1 31 -26 159 -10 142 17 -5 8 42 8 104 0 153 -21 382 -27 398 -11 8 7 23 13 35 13 12 0 9 -10 -8 -22 -24 -18 -22 -19 10 -8 75 27 131 27 158 -1 15 -15 31 -24 35 -21 22 19 156 27 145 9 -9 -14 -1 -15 25 -2 20 11 66 18 101 16 37 -2 59 4 52 16 -17 26 213 -1 248 -30 14 -12 26 -14 26 -4 0 9 50 18 112 20 76 2 124 15 151 40 38 34 42 34 65 3 94 -129 612 8 612 161 0 13 14 23 31 23 17 0 26 9 19 20 -7 11 -3 20 7 20 22 0 6 65 -45 184 -18 41 -32 98 -32 126 0 28 -13 56 -30 63 -16 6 -25 19 -19 29 6 10 1 18 -12 18 -13 0 -18 14 -11 31 6 17 4 26 -6 20 -24 -14 -66 38 -47 59 8 9 3 10 -11 1 -14 -8 -41 -8 -60 0 -67 28 -326 21 -343 -9 -21 -38 -144 -33 -173 7 -12 17 -36 31 -53 31 -16 0 -41 13 -55 30 -14 16 -39 30 -55 30 -17 0 -42 16 -56 35 -26 35 -149 54 -149 23 0 -10 -13 -18 -29 -18 -15 0 -40 -12 -55 -27 -42 -42 -169 -97 -209 -90 -21 3 -50 -2 -65 -12 -18 -11 -24 -10 -15 4 7 11 -1 26 -17 32 -35 14 -90 -4 -90 -28 0 -30 -85 -98 -106 -85 -11 7 -14 3 -7 -9 7 -11 -1 -26 -18 -33 -18 -6 -27 -20 -20 -30 6 -10 -3 -23 -19 -29 -18 -7 -30 0 -30 15 0 15 -13 38 -30 52 -16 13 -23 35 -15 47 27 44 23 76 -9 64 -20 -8 -52 11 -88 52 -48 53 -73 64 -153 67 -52 2 -120 14 -151 27 -31 13 -82 23 -112 23 -30 0 -61 5 -68 12 -22 22 -192 21 -179 -1 7 -12 -2 -9 -19 5 -23 18 -36 19 -46 4 -7 -12 -31 -16 -52 -9 -22 7 -51 -1 -69 -20 -18 -17 -27 -31 -22 -31 5 0 -17 -27 -50 -60 -34 -34 -53 -69 -45 -83 9 -14 5 -18 -9 -9 -34 21 -29 -65 6 -100 16 -16 37 -29 45 -29 9 1 16 -8 16 -18 0 -11 18 -34 40 -52 22 -17 30 -27 17 -21 -13 7 -28 -1 -34 -17 -6 -16 0 -32 13 -37 17 -7 14 -19 -9 -44 -32 -33 -33 -33 -30 0 2 20 -10 40 -25 46 -20 6 -24 -1 -16 -23 8 -21 2 -33 -15 -33 -18 0 -26 15 -21 40 4 23 -2 37 -16 35 -17 -4 -23 39 -20 150 2 85 -2 152 -10 150 -8 -3 -36 12 -64 33 -35 26 -39 33 -12 24 32 -11 34 -8 12 18 -14 16 -33 30 -43 30 -22 0 -144 84 -154 105 -3 8 -20 15 -36 15 -17 0 -23 10 -15 23 10 16 0 20 -31 12 -25 -7 -40 -7 -33 0 44 43 -46 65 -265 64 -149 -1 -219 -8 -193 -19z m270 -148 c0 -26 -302 -335 -341 -349 -77 -27 -11 154 95 261 116 118 246 164 246 88z m260 -77 c0 -13 -83 -108 -185 -210 l-184 -185 184 -185 c102 -102 185 -196 185 -208 0 -25 -97 -56 -117 -38 -126 110 -403 410 -403 435 0 66 382 415 455 415 38 1 65 -9 65 -24z m-762 -53 c21 -14 28 -90 29 -355 l1 -337 -64 -6 -64 -7 0 350 c0 339 4 364 60 371 6 1 22 -7 38 -16z m898 -272 c6 -280 6 -280 180 -280 131 0 134 -1 140 -55 l7 -55 -163 0 c-253 0 -280 35 -280 365 0 263 4 280 69 271 38 -6 41 -22 47 -246z m886 192 c69 -70 76 -154 19 -227 -40 -50 -40 -50 0 -86 60 -54 52 -159 -19 -231 -58 -57 -62 -58 -282 -58 l-223 0 7 63 6 63 182 -4 c219 -5 278 25 227 119 -17 33 -43 39 -170 39 -146 0 -149 1 -149 50 0 49 3 50 149 50 127 0 153 6 170 39 52 97 -15 128 -256 118 -181 -7 -209 8 -175 94 24 64 445 39 514 -29z m1255 -66 l-7 -84 105 6 c219 11 329 -218 177 -370 -66 -66 -72 -68 -230 -68 l-162 0 0 300 0 300 62 0 c60 0 61 -2 55 -84z m-1017 -176 l0 -220 160 0 160 0 0 -60 0 -60 -215 0 -215 0 -1 280 -1 280 56 0 56 0 0 -220z m757 65 c36 -30 42 -60 45 -215 l4 -180 -181 -6 c-175 -5 -182 -4 -223 48 -97 124 -32 208 161 208 204 0 197 67 -8 76 -128 6 -135 8 -135 55 0 64 264 75 337 14z m1043 -15 c0 -48 -5 -50 -131 -50 -199 0 -182 -65 21 -80 185 -13 254 -163 109 -240 -38 -21 -344 -28 -363 -9 -51 50 14 88 161 93 207 8 224 63 23 71 -190 9 -260 107 -151 216 75 75 331 75 331 -1z m-3326 -558 c-40 -104 -354 139 -354 273 0 38 6 75 14 82 25 25 353 -319 340 -355z"/> <path d="M3820 640 l0 -120 85 0 c97 1 119 12 153 75 45 86 -35 165 -167 165 l-71 0 0 -120z"/> <path d="M3300 560 c0 -35 13 -40 110 -40 97 0 110 5 110 40 0 35 -13 40 -110 40 -97 0 -110 -5 -110 -40z"/> </g> </svg> 