<?xml version="1.0" standalone="no"?>
<!DOCTYPE svg PUBLIC "-//W3C//DTD SVG 20010904//EN"
 "http://www.w3.org/TR/2001/REC-SVG-20010904/DTD/svg10.dtd">
<svg version="1.0" xmlns="http://www.w3.org/2000/svg"
 width="100.000000pt" height="100.000000pt" viewBox="0 0 100.000000 100.000000"
 preserveAspectRatio="xMidYMid meet">
<metadata>
Created by potrace 1.10, written by Peter Selinger 2001-2011
</metadata>
<g transform="translate(0.000000,100.000000) scale(0.100000,-0.100000)"
fill="#000000" stroke="none">
<path d="M5 500 c0 -278 1 -391 2 -253 2 139 2 367 0 505 -1 139 -2 26 -2
-252z"/>
<path d="M600 980 c8 -5 20 -10 25 -10 6 0 3 5 -5 10 -8 5 -19 10 -25 10 -5 0
-3 -5 5 -10z"/>
<path d="M424 930 c-18 -4 -50 -22 -73 -41 -56 -46 -75 -110 -66 -215 7 -69 6
-74 -10 -67 -11 4 -16 2 -12 -3 3 -6 8 -37 11 -71 2 -33 11 -74 20 -91 9 -17
16 -41 16 -54 0 -13 7 -34 15 -48 8 -14 19 -36 25 -48 5 -13 28 -41 50 -62 65
-62 143 -60 213 7 l40 38 -7 -28 c-4 -19 -3 -26 4 -22 5 3 10 18 10 33 0 15
11 49 25 76 14 27 25 58 25 68 0 10 7 18 15 18 8 0 15 5 15 10 0 6 -4 10 -9
10 -4 0 -6 11 -4 24 3 16 10 23 19 19 10 -4 14 4 14 28 0 25 -3 30 -9 20 -15
-24 -18 59 -4 103 20 61 16 145 -8 186 -55 91 -107 120 -211 119 -40 -1 -87
-4 -104 -9z m145 -17 c9 -16 12 -16 20 -3 8 12 13 12 23 2 9 -9 9 -12 -5 -12
-9 0 -17 -5 -17 -11 0 -6 7 -9 15 -5 8 3 19 -3 25 -12 9 -14 11 -13 7 10 -3
19 0 25 10 21 7 -3 10 -9 7 -14 -8 -13 15 -49 29 -44 6 3 17 -6 24 -20 12 -28
2 -33 -20 -10 -8 8 -17 11 -20 8 -4 -3 8 -19 25 -35 27 -25 30 -31 17 -38 -19
-11 -17 -67 5 -163 15 -64 15 -73 0 -128 -9 -32 -20 -59 -24 -59 -5 0 -6 -10
-2 -22 4 -16 2 -19 -8 -13 -8 5 -11 4 -6 -3 3 -6 -5 -23 -19 -38 -14 -15 -25
-33 -25 -42 0 -9 -6 -12 -16 -8 -8 3 -13 2 -10 -2 7 -12 -30 -55 -50 -59 -102
-17 -92 -19 -146 37 -33 35 -48 58 -45 70 3 13 0 17 -9 13 -8 -3 -14 -2 -14 1
0 3 -11 45 -25 92 -27 93 -27 90 12 252 3 12 0 29 -7 38 -11 12 -10 18 3 31
20 20 107 25 107 6 0 -7 8 -13 18 -13 13 0 14 2 3 9 -7 5 -11 14 -7 20 4 6 14
3 26 -9 21 -21 50 -27 50 -11 0 6 9 9 20 8 11 -1 20 -5 20 -9 0 -4 4 -8 10 -8
5 0 2 16 -7 36 -14 27 -22 34 -38 30 -11 -3 -31 -9 -44 -12 -21 -6 -23 -4 -17
17 6 20 5 21 -4 6 -6 -9 -15 -15 -21 -12 -5 3 -6 -1 -3 -10 5 -11 2 -14 -10
-9 -10 4 -16 1 -16 -7 0 -12 -2 -12 -9 0 -7 10 -21 12 -55 7 l-46 -7 14 33
c14 32 34 41 28 12 -2 -8 2 -14 8 -14 5 0 10 2 10 4 0 2 3 12 7 22 4 12 3 15
-5 10 -25 -15 -10 14 20 39 21 18 33 23 38 15 5 -8 10 -6 14 7 7 17 8 17 21 0
11 -15 15 -16 27 -3 14 13 37 22 65 25 7 0 17 -7 22 -16z m-51 -141 c6 -18
-15 -14 -22 4 -4 10 -1 14 6 12 6 -2 14 -10 16 -16z m32 2 c0 -8 -4 -12 -10
-9 -5 3 -10 10 -10 16 0 5 5 9 10 9 6 0 10 -7 10 -16z m190 -67 c0 -12 -5 -29
-11 -37 -9 -13 -10 -13 -6 1 3 9 0 22 -6 28 -8 8 -8 11 2 11 8 0 11 6 7 16 -3
8 -2 12 4 9 6 -3 10 -16 10 -28z m-453 -149 c-3 -7 -5 -2 -5 12 0 14 2 19 5
13 2 -7 2 -19 0 -25z"/>
<path d="M535 910 c-3 -5 -13 -6 -22 -3 -11 4 -14 3 -9 -5 10 -16 31 -15 46 3
8 9 9 15 2 15 -6 0 -13 -4 -17 -10z"/>
<path d="M395 880 c-3 -5 -1 -10 4 -10 6 0 11 5 11 10 0 6 -2 10 -4 10 -3 0
-8 -4 -11 -10z"/>
<path d="M555 880 c-8 -13 3 -30 18 -29 9 0 9 2 0 5 -7 3 -9 12 -6 20 6 16 -3
19 -12 4z"/>
<path d="M405 850 c-3 -6 1 -7 9 -4 9 3 16 1 16 -6 0 -6 5 -8 11 -4 8 4 7 9
-2 15 -18 11 -26 11 -34 -1z"/>
<path d="M596 843 c-6 -14 -5 -15 5 -6 7 7 10 15 7 18 -3 3 -9 -2 -12 -12z"/>
<path d="M380 820 c-8 -5 -11 -12 -7 -16 4 -4 15 0 24 9 18 18 8 23 -17 7z"/>
<path d="M560 815 c0 -14 38 -64 44 -58 4 4 4 0 0 -10 -3 -10 -1 -17 5 -17 6
0 11 5 11 11 0 12 42 2 51 -13 4 -6 9 2 11 16 3 15 3 24 0 21 -3 -2 -11 0 -19
6 -9 8 -13 8 -13 1 0 -21 -30 0 -31 22 0 20 -1 20 -8 1 -8 -19 -8 -19 -20 3
-10 19 -31 31 -31 17z"/>
<path d="M348 619 c-10 -5 -18 -17 -18 -26 0 -13 3 -13 15 -3 10 9 33 11 70 7
30 -3 55 -4 55 -2 0 3 -13 11 -30 20 -33 17 -67 19 -92 4z"/>
<path d="M611 622 c-19 -2 -44 -10 -55 -18 -19 -14 -15 -14 41 -8 44 5 67 3
78 -6 12 -10 15 -10 15 2 0 20 -38 34 -79 30z"/>
<path d="M355 569 c-10 -15 4 -24 17 -11 8 8 15 9 25 1 9 -9 17 -8 28 1 10 9
15 9 15 1 0 -6 8 -11 18 -11 15 1 15 2 -2 15 -23 17 -92 20 -101 4z"/>
<path d="M565 570 c-11 -17 5 -27 16 -10 8 13 10 13 19 0 7 -12 12 -12 21 -3
10 10 17 9 32 -5 18 -16 19 -16 16 3 -3 16 -13 21 -51 23 -26 2 -49 -2 -53 -8z"/>
<path d="M525 540 c-3 -5 -1 -10 4 -10 6 0 11 5 11 10 0 6 -2 10 -4 10 -3 0
-8 -4 -11 -10z"/>
<path d="M470 540 c0 -3 -3 -23 -6 -45 -4 -22 -11 -46 -18 -54 -8 -11 -8 -13
3 -10 20 7 40 69 30 94 -4 11 -8 18 -9 15z"/>
<path d="M371 521 c-10 -6 -10 -10 -1 -16 13 -8 24 -1 19 14 -3 6 -10 7 -18 2z"/>
<path d="M665 519 c-4 -6 -5 -12 -2 -15 2 -3 7 2 10 11 7 17 1 20 -8 4z"/>
<path d="M523 504 c-3 -8 -1 -20 6 -27 8 -8 11 -4 11 16 0 30 -7 35 -17 11z"/>
<path d="M320 500 c0 -5 7 -10 15 -10 8 0 15 5 15 10 0 6 -7 10 -15 10 -8 0
-15 -4 -15 -10z"/>
<path d="M515 440 c-3 -5 -2 -10 4 -10 5 0 18 -3 28 -7 16 -6 16 -5 4 10 -15
19 -27 22 -36 7z"/>
<path d="M507 396 c-4 -10 0 -12 14 -9 22 6 26 23 5 23 -8 0 -16 -6 -19 -14z"/>
<path d="M447 379 c-4 -15 -11 -19 -24 -15 -10 3 -24 2 -32 -3 -11 -7 -9 -13
8 -30 18 -18 33 -21 100 -21 92 0 111 5 111 31 0 13 -7 19 -22 19 -13 0 -30 4
-37 9 -9 6 -22 6 -34 -1 -11 -5 -22 -6 -26 -2 -3 5 -13 15 -22 22 -14 10 -17
9 -22 -9z m117 -35 c9 -3 16 -10 16 -15 0 -11 -67 -12 -136 -2 -36 5 -43 8
-29 14 24 9 127 11 149 3z"/>
<path d="M451 269 c17 -11 86 -12 92 -1 3 4 -20 8 -50 8 -35 1 -50 -2 -42 -7z"/>
<path d="M987 351 c-4 -189 -6 -346 -3 -349 4 -3 8 -3 11 0 3 3 4 160 3 349
l-3 344 -8 -344z"/>
<path d="M750 588 c0 -7 5 -20 10 -28 8 -12 10 -9 10 13 0 15 -4 27 -10 27 -5
0 -10 -6 -10 -12z"/>
<path d="M320 230 c-8 -4 -27 -13 -42 -21 -56 -25 -28 -97 57 -148 47 -28 68
-35 128 -38 46 -3 90 1 121 11 53 16 74 13 55 -10 -14 -17 -5 -18 22 -4 26 15
26 43 -1 35 -35 -11 -21 9 20 29 40 19 61 46 35 46 -8 0 -15 -5 -15 -11 0 -6
-9 -8 -20 -4 -14 4 -20 2 -18 -7 2 -7 -21 -25 -51 -41 -92 -46 -192 -36 -288
29 -52 35 -67 64 -47 92 24 34 34 26 28 -22 -4 -27 -2 -46 5 -50 7 -5 11 6 11
34 0 23 5 50 11 62 13 23 10 28 -11 18z"/>
<path d="M664 174 c0 -24 4 -44 8 -44 4 0 8 16 8 36 0 39 15 38 31 -3 5 -13
13 -22 18 -19 5 4 12 -6 15 -22 6 -24 11 -27 45 -27 27 0 37 3 34 12 -3 9 5
13 23 14 l29 0 -25 11 c-14 5 -37 16 -52 24 -36 19 -53 18 -34 -2 9 -8 16 -21
16 -27 0 -8 3 -8 9 1 7 11 9 11 14 -1 3 -8 0 -14 -6 -13 -22 3 -57 40 -58 61
0 20 0 20 -9 0 -8 -19 -9 -19 -9 2 -1 14 -11 24 -30 31 l-28 10 1 -44z"/>
<path d="M151 151 c-7 -5 -10 -14 -6 -21 4 -7 10 -8 14 -3 3 5 15 15 26 21 20
11 20 11 0 12 -11 0 -26 -4 -34 -9z"/>
<path d="M200 111 c0 -5 9 -7 20 -4 11 3 20 7 20 9 0 2 -9 4 -20 4 -11 0 -20
-4 -20 -9z"/>
<path d="M785 80 c-3 -5 -1 -10 4 -10 6 0 11 5 11 10 0 6 -2 10 -4 10 -3 0 -8
-4 -11 -10z"/>
<path d="M822 81 c-10 -6 -7 -10 10 -13 16 -3 25 0 25 9 0 15 -16 17 -35 4z"/>
<path d="M731 71 c-10 -6 -10 -10 -1 -16 13 -8 24 -1 19 14 -3 6 -10 7 -18 2z"/>
</g>
</svg>
